# xmcd
#
# Track frame offsets: 
#        182
#        16680
#        32482
#        47112
#        59772
#        72950
#        86385
#        98757
#        111815
#        126115
#
# Disc length: 1871 seconds
#
# Revision: 1
# Processed by: cddbd v1.5.1PL2 Copyright (c) Steve Scherf et al.
# Submitted via: ExactAudioCopy v0.95b4
#
DISCID=7b074d0a
DTITLE=Vern Gosdin - The Best Of Vern Gosdin
DYEAR=1988
DGENRE=Country
TTITLE0=Break My Mind
TTITLE1=All I Want And Need Forever
TTITLE2=Yesterday's Gone
TTITLE3=Till The End
TTITLE4=Mother Country Music
TTITLE5=Hangin' On
TTITLE6=Catch The Wind
TTITLE7=Never My Love
TTITLE8=It Started All Over Again
TTITLE9=Shake, Rattle And Roll
EXTD=
EXTT0=
EXTT1=
EXTT2=
EXTT3=
EXTT4=
EXTT5=
EXTT6=
EXTT7=
EXTT8=
EXTT9=
PLAYORDER=
